#!OML:ASF E:\id_vita\Project 1\Capture day 1\Session 1\Female.ASF
:FULLY-SPECIFIED
:DEGREES
659
root 17.838 16.5947 1.32649 824.569 90.4731 812.087
lowerback -14.3193 2.51649 -2.35621
upperback -4.64399 3.88808 -0.346212
thorax 2.97936 2.03002 1.60914
lowerneck 5.73876 -1.47004 -5.29503
upperneck 2.75717 -2.22925 4.69584
head 0.0015331 -1.1581 2.43461
rclavicle -3.70236e-015 2.5842e-015
rhumerus -29.6574 -20.6658 -83.1313
rradius 21.7217
rwrist 14.7018
rhand -13.8443 9.34468
rfingers 7.12502
rthumb 12.2792 -20.2748
lclavicle -3.70236e-015 2.5842e-015
lhumerus -84.9314 49.1609 12.817
lradius 10.8503
lwrist -88.0636
lhand -5.15803 23.9898
lfingers 7.12502
lthumb 20.6416 52.9122
rfemur -11.4903 5.43657 27.0505
rtibia 20.4209
rfoot -18.1655 -1.23979
rtoes -10.2605
lfemur -39.9117 -1.87896 -19.5211
ltibia 46.4388
lfoot -12.2403 5.60024
ltoes -3.02818
660
root 17.9512 16.5973 1.32812 856.2 90.611 843.648
lowerback -14.3313 2.61886 -2.26327
upperback -4.57804 4.00726 -0.341205
thorax 3.05604 2.08522 1.58461
lowerneck 6.56499 -1.15278 -5.64408
upperneck 1.8235 -1.85215 5.05691
head -0.452299 -0.984745 2.63338
rclavicle -3.9993e-014 -2.00773e-014
rhumerus -29.1426 -20.0437 -83.6402
rradius 22.1115
rwrist 14.3056
rhand -13.7688 8.85167
rfingers 7.12502
rthumb 12.3521 -20.7634
lclavicle -3.9993e-014 -2.00773e-014
lhumerus -84.3023 49.2864 13.8247
lradius 10.7642
lwrist -87.3519
lhand -5.03488 24.0667
lfingers 7.12502
lthumb 20.7599 52.9763
rfemur -10.854 5.5073 27.1233
rtibia 19.8104
rfoot -17.8644 -1.18896
rtoes -9.61158
lfemur -40.1443 -2.34687 -19.2833
ltibia 43.9962
lfoot -12.1257 5.20917
ltoes -3.5893
661
root 18.0671 16.5944 1.33065 869.662 90.8282 857.087
lowerback -14.3079 2.69939 -2.14446
upperback -4.53172 4.09527 -0.379693
thorax 3.09981 2.12584 1.49268
lowerneck 5.59312 -1.44994 -5.13097
upperneck 2.70275 -2.18644 4.28498
head 0.00135238 -1.13306 2.26582
rclavicle -2.62893e-014 -1.05356e-014
rhumerus -28.7564 -19.4068 -84.2015
rradius 22.3732
rwrist 14.3105
rhand -14.2294 8.85548
rfingers 7.12502
rthumb 11.9079 -20.7859
lclavicle -2.62893e-014 -1.05356e-014
lhumerus -83.2409 49.261 15.3151
lradius 10.8298
lwrist -86.3346
lhand -4.78733 24.1542
lfingers 7.12502
lthumb 20.9977 53.0375
rfemur -10.1052 5.68857 27.2394
rtibia 19.191
rfoot -17.3778 -1.86131
rtoes -9.97514
lfemur -40.2786 -2.92229 -18.9675
ltibia 41.5582
lfoot -11.9686 5.01208
ltoes -3.89969
662
root 18.1807 16.5906 1.33315 876.552 91.0377 863.932
lowerback -14.2149 2.77494 -2.01286
upperback -4.57349 4.17787 -0.460883
thorax 3.01845 2.16822 1.34079
lowerneck 6.3578 -1.10718 -5.37485
upperneck 2.05075 -1.76759 4.85196
head -0.351894 -0.936406 2.50784
rclavicle -2.38293e-014 5.56597e-015
rhumerus -28.4931 -18.9006 -84.7285
rradius 22.6679
rwrist 14.1316
rhand -14.5296 9.19674
rfingers 7.12502
rthumb 11.6185 -20.4612
lclavicle -2.38293e-014 5.56597e-015
lhumerus -82.0078 49.0232 16.9432
lradius 10.913
lwrist -85.1555
lhand -4.84006 23.8276
lfingers 7.12502
lthumb 20.9471 52.7165
rfemur -9.3549 5.83046 27.3553
rtibia 18.5168
rfoot -16.6356 -2.41976
rtoes -9.19115
lfemur -40.4103 -3.55467 -18.6176
ltibia 39.1444
lfoot -11.8686 4.95797
ltoes -3.86668
663
root 18.298 16.5869 1.33466 885.226 91.4253 872.551
lowerback -14.3443 2.86092 -1.93114
upperback -4.5004 4.28074 -0.468046
thorax 3.16775 2.21452 1.31511
lowerneck 6.53138 -1.01189 -5.55408
upperneck 1.80056 -1.65625 5.07942
head -0.465628 -0.886349 2.61989
rclavicle 1.29707e-014 1.03368e-014
rhumerus -28.0097 -18.2563 -85.2568
rradius 22.9565
rwrist 13.606
rhand -14.4696 9.32557
rfingers 7.12502
rthumb 11.6762 -20.3291
lclavicle 1.29707e-014 1.03368e-014
lhumerus -79.3964 48.5736 20.6487
lradius 11.0825
lwrist -82.3482
lhand -4.85626 23.5634
lfingers 7.12502
lthumb 20.9315 52.4541
rfemur -8.56703 5.89772 27.4115
rtibia 17.7618
rfoot -16.9336 -1.82664
rtoes -8.98809
lfemur -40.4983 -4.01589 -18.3084
ltibia 36.7777
lfoot -11.9302 5.06378
ltoes -3.15045
